<?xml version="1.0" encoding="utf-8"?>
<!-- Generator: Adobe Illustrator 27.5.0, SVG Export Plug-In . SVG Version: 6.00 Build 0)  -->
<svg version="1.1" id="Layer_1" xmlns="http://www.w3.org/2000/svg" xmlns:xlink="http://www.w3.org/1999/xlink" x="0px" y="0px"
	 viewBox="0 0 275.634 116.243" style="enable-background:new 0 0 275.634 116.243;" xml:space="preserve">
<g>
	<g>
		<g>
			<path style="fill:#D5D3CB;" d="M11.936,77.991l-0.421,0.707c0,0-6.068-7.115-2.481-13.543L11.936,77.991z"/>
			<path style="fill:#222222;" d="M8.291,64.632c0,0,0.382,8.521,3.225,14.066l9.939,1.18V62.726L8.291,64.632z"/>
		</g>
		<path style="fill:#DE2019;" d="M65.678,55.049l27.759-44.378c0,0,4.34-5.428,7.585-5.428h87.205c0,0,2.898-0.018,4.605,2.486
			l27.32,46.767L65.678,55.049z"/>
		<path style="fill:#DE2019;" d="M268.931,52.494c-0.096-0.168-0.188-0.317-0.279-0.441c-0.795-1.042-2.082-1.176-3.682-1.692
			l-45.297-4.463L74.436,46.24c0,0-40.67-0.389-67.303,12.972c-2.124,1.857,16.011,35.346,16.244,35.438l180.071-0.175l57.391-8.979
			c0.65-2.178,1.287-4.355,1.93-6.529c1.449-4.925,2.916-9.836,4.34-14.768c0.428-1.482,0.855-2.973,1.277-4.461
			C269.101,57.212,270.347,55.022,268.931,52.494z"/>
		<path d="M85.397,55.025c0,0,130.727,2.396,131.461,0.023c0.309-0.989-22.168-39.271-22.168-39.271s-2.9-6.329-9.377-6.32
			l-71.93,0.445c0,0-3.392-0.445-6.588,5.406L85.727,51.688C85.727,51.688,83.197,55.127,85.397,55.025z"/>
		<path style="fill:#515254;" d="M186.468,12.024h-3.682c0,0-1.26,0.273-0.484,1.684l21.135,36.839c0,0,1.129,2.512,1.998,2.638
			h6.488c0,0,1.742-0.126,1.258-1.534c-0.48-1.409-20.135-36.152-20.135-36.152S191.399,12.813,186.468,12.024z"/>
		<g>
			<path style="fill:#F9A01B;" d="M20.479,68.354c0,0.626-0.507,1.132-1.135,1.132h-6.279c-0.624,0-1.129-0.506-1.129-1.132v-1.056
				c0-0.63,0.505-1.137,1.129-1.137h6.279c0.628,0,1.135,0.507,1.135,1.137V68.354z"/>
			<path style="fill:#FED8A3;" d="M18.692,68.219c0,0.464-0.381,0.842-0.847,0.842h-4.68c-0.467,0-0.847-0.378-0.847-0.842v-0.79
				c0-0.465,0.38-0.844,0.847-0.844h4.68c0.466,0,0.847,0.379,0.847,0.844V68.219z"/>
		</g>
		<g>
			<path style="fill:#006EB5;" d="M16.715,83.741c-0.08-0.139-0.162-0.281-0.248-0.426C16.553,83.46,16.635,83.603,16.715,83.741z"
				/>
			<path style="fill:#006EB5;" d="M22.858,93.875c-0.94-1.464-3.036-4.862-5.409-8.89C19.827,89.015,21.924,92.416,22.858,93.875z"
				/>
			<path style="fill:#006EB5;" d="M23.266,94.502c-0.01-0.015-0.02-0.027-0.029-0.04C23.247,94.475,23.256,94.487,23.266,94.502z"/>
			<path style="fill:#006EB5;" d="M17.361,84.836c-0.162-0.273-0.324-0.552-0.49-0.826C17.037,84.284,17.199,84.563,17.361,84.836z"
				/>
			<path style="fill:#006EB5;" d="M23.345,94.611c0-0.003-0.007-0.01-0.011-0.015C23.338,94.602,23.345,94.608,23.345,94.611z"/>
			<path style="fill:#006EB5;" d="M23.004,94.104c-0.028-0.046-0.062-0.092-0.094-0.146C22.943,94.012,22.976,94.058,23.004,94.104z
				"/>
			<path style="fill:#006EB5;" d="M23.166,94.349c-0.015-0.021-0.03-0.047-0.049-0.069C23.135,94.302,23.151,94.327,23.166,94.349z"
				/>
			<path style="fill:#0A4286;" d="M23.237,94.462c-0.02-0.033-0.045-0.073-0.071-0.113C23.192,94.389,23.217,94.424,23.237,94.462z"
				/>
			<path style="fill:#0A4286;" d="M261.981,83.227L261.981,83.227c-0.377,1.128-0.756,2.259-1.142,3.389
				C261.226,85.485,261.604,84.354,261.981,83.227z"/>
			<path style="fill:#0A4286;" d="M23.335,94.597c-0.019-0.025-0.038-0.055-0.068-0.095C23.296,94.542,23.316,94.572,23.335,94.597z
				"/>
			<path style="fill:#0A4286;" d="M23.377,94.649c0,0-0.014-0.02-0.032-0.038C23.364,94.632,23.375,94.649,23.377,94.649z"/>
			<path style="fill:#0A4286;" d="M16.871,84.01c-0.05-0.091-0.099-0.18-0.155-0.268C16.772,83.83,16.821,83.919,16.871,84.01z"/>
			<path style="fill:#0A4286;" d="M16.419,83.227c0.015,0.026,0.029,0.058,0.049,0.089C16.448,83.284,16.433,83.253,16.419,83.227
				L16.419,83.227z"/>
			<path style="fill:#0A4286;" d="M17.449,84.985c-0.032-0.052-0.061-0.1-0.088-0.149C17.388,84.886,17.417,84.934,17.449,84.985z"
				/>
			<path style="fill:#0A4286;" d="M23.117,94.279c-0.034-0.054-0.073-0.113-0.112-0.176C23.044,94.166,23.083,94.226,23.117,94.279z
				"/>
			<path style="fill:#0A4286;" d="M22.911,93.958c-0.017-0.026-0.034-0.051-0.053-0.083C22.877,93.907,22.894,93.932,22.911,93.958z
				"/>
			<polygon style="fill:#C31D13;" points="80.916,83.227 80.916,94.599 203.448,94.496 212.895,93.196 212.895,83.227 			"/>
			<path style="fill:#006EB5;" d="M212.895,93.196l47.943-6.581c0.387-1.13,0.766-2.261,1.142-3.389h-49.086V93.196z"/>
			<path style="fill:#C31D13;" d="M212.895,93.196l47.943-6.581c0.387-1.13,0.766-2.261,1.142-3.389h-49.086V93.196z"/>
			<path style="fill:#C31D13;" d="M16.419,83.227c0.015,0.026,0.029,0.058,0.049,0.089c0.086,0.145,0.168,0.287,0.248,0.426
				c0.057,0.089,0.105,0.178,0.155,0.268c0.166,0.275,0.328,0.553,0.49,0.826c0.027,0.05,0.056,0.098,0.088,0.149
				c2.373,4.027,4.469,7.426,5.409,8.89c0.019,0.032,0.036,0.057,0.053,0.083c0.032,0.054,0.066,0.1,0.094,0.146
				c0.039,0.063,0.078,0.122,0.112,0.176c0.018,0.022,0.034,0.048,0.049,0.069c0.026,0.04,0.052,0.08,0.071,0.113
				c0.01,0.013,0.02,0.025,0.029,0.04c0.03,0.04,0.05,0.07,0.068,0.095c0.004,0.005,0.011,0.012,0.011,0.015
				c0.019,0.019,0.029,0.038,0.029,0.038l57.541-0.051V83.227H16.419z"/>
		</g>
		<g>
			<g>
				<path style="fill:#A9ABAE;" d="M34.372,94.97c0,0,2.906-9.626,2.907-9.631c0.583-1.936,1.361-3.722,2.398-5.469
					c2.091-3.533,4.859-6.905,8.829-8.343c6.238-2.265,13.877-1.687,20.025,0.623c4.841,1.814,8.679,4.746,11.051,9.4
					c1.728,3.394,3.425,6.803,5.15,10.198c0.509,1.006,1.025,2.012,1.533,3.019L34.372,94.97z"/>
			</g>
			<path style="fill:#020200;" d="M36.428,94.597c0,0,2.633-8.727,2.633-8.729c0.524-1.753,1.232-3.375,2.172-4.956
				c1.896-3.205,4.411-6.261,8.005-7.57c5.659-2.048,12.581-1.524,18.154,0.567c4.387,1.647,7.866,4.302,10.018,8.522
				c1.567,3.076,3.103,6.17,4.664,9.247c0.464,0.911,0.933,1.823,1.394,2.737L36.428,94.597z"/>
		</g>
		<g>
			<g>
				<path style="fill:#FFB031;" d="M209.132,94.514l2.139,0.01c0.793-0.155,1.588-0.308,2.381-0.466
					C212.149,94.216,210.64,94.349,209.132,94.514z"/>
			</g>
			<g>
				<path style="fill:#A9ABAE;" d="M228.862,91.108c-0.836-2.754-1.854-6.137-1.856-6.142c-0.584-1.936-1.361-3.723-2.392-5.469
					c-2.102-3.534-4.867-6.905-8.838-8.343c-6.238-2.264-13.498-1.314-19.648,0.995c-4.838,1.814-9.053,4.372-11.424,9.026
					c-1.727,3.395-3.424,6.803-5.146,10.201c-0.514,1.003-1.027,2.009-1.543,3.019l27.893,0.105
					C210.019,93.832,225.317,91.587,228.862,91.108z"/>
			</g>
			<path style="fill:#020200;" d="M226.544,91.464c-0.758-2.502-1.693-5.594-1.693-5.597c-0.527-1.753-1.23-3.375-2.168-4.956
				c-1.898-3.205-4.412-6.261-8.012-7.57c-5.65-2.048-12.574-1.524-18.148,0.567c-4.387,1.647-7.867,4.302-10.02,8.522
				c-1.568,3.076-3.1,6.17-4.664,9.247c-0.463,0.911-0.932,1.823-1.395,2.737l25.406,0.099
				C209.979,93.832,223.788,91.931,226.544,91.464z"/>
			<path style="fill:#020200;" d="M209.052,94.523l2.166,0.01c0.82-0.157,1.635-0.313,2.449-0.476
				C212.132,94.22,210.591,94.353,209.052,94.523z"/>
		</g>
		<g>
			<path style="fill:#363635;" d="M77.118,91.909c0,9.798-7.94,17.734-17.733,17.734c-9.794,0-17.732-7.937-17.732-17.734
				c0-9.793,7.938-17.73,17.732-17.73C69.177,74.179,77.118,82.116,77.118,91.909z"/>
			<path style="fill:#222222;" d="M77.118,91.909c0,9.798-7.94,17.734-17.733,17.734c-9.794,0-17.732-7.937-17.732-17.734
				c0-9.793,7.938-17.73,17.732-17.73C69.177,74.179,77.118,82.116,77.118,91.909z"/>
			<path d="M71.416,91.909c0,6.647-5.384,12.033-12.031,12.033c-6.648,0-12.031-5.386-12.031-12.033
				c0-6.646,5.384-12.031,12.031-12.031C66.032,79.878,71.416,85.264,71.416,91.909z"/>
			<path style="fill:#D5D3CB;" d="M70.37,91.909c0,6.068-4.916,10.987-10.985,10.987c-6.068,0-10.982-4.919-10.982-10.987
				c0-6.066,4.914-10.985,10.982-10.985C65.454,80.924,70.37,85.843,70.37,91.909z"/>
			<g>
				<g>
					<path style="fill:#4C4C49;" d="M60.75,81.831c0,0-0.868-0.063-0.901,0.805v3.292c0,0-0.03,0.676,0.451,0.806
						c0,0,1.487,0.357,2.163,0.774c0,0,0.385,0.358,0.937-0.29l2.309-2.323c0,0,0.544-0.534,0.305-0.885
						C66.012,84.01,64.366,82.314,60.75,81.831z"/>
					<path style="fill:#4C4C49;" d="M58.012,81.831c0,0,0.869-0.063,0.901,0.805v3.292c0,0,0.032,0.676-0.452,0.806
						c0,0-1.483,0.357-2.162,0.774c0,0-0.385,0.358-0.933-0.29l-2.309-2.323c0,0-0.554-0.534-0.308-0.885
						C52.751,84.01,54.397,82.314,58.012,81.831z"/>
					<path style="fill:#4C4C49;" d="M69.627,90.307c0,0,0.117,0.866-0.751,0.947l-3.289,0.188c0,0-0.672,0.067-0.828-0.409
						c0,0-0.437-1.466-0.898-2.114c0,0-0.374-0.367,0.239-0.95l2.188-2.435c0,0,0.502-0.576,0.869-0.354
						C67.159,85.179,68.944,86.726,69.627,90.307z"/>
					<path style="fill:#4C4C49;" d="M49.141,90.307c0,0-0.115,0.866,0.752,0.947l3.287,0.188c0,0,0.674,0.067,0.833-0.409
						c0,0,0.433-1.466,0.893-2.114c0,0,0.374-0.367-0.239-0.95l-2.191-2.435c0,0-0.496-0.576-0.865-0.354
						C51.61,85.179,49.825,86.726,49.141,90.307z"/>
				</g>
				<g>
					<path style="fill:#4C4C49;" d="M60.75,101.993c0,0-0.868,0.064-0.901-0.807v-3.294c0,0-0.03-0.676,0.451-0.805
						c0,0,1.487-0.357,2.163-0.775c0,0,0.385-0.355,0.937,0.293l2.309,2.319c0,0,0.544,0.53,0.305,0.891
						C66.012,99.815,64.366,101.511,60.75,101.993z"/>
					<path style="fill:#4C4C49;" d="M58.012,101.993c0,0,0.869,0.064,0.901-0.807v-3.294c0,0,0.032-0.676-0.452-0.805
						c0,0-1.483-0.357-2.162-0.775c0,0-0.385-0.355-0.933,0.293l-2.309,2.319c0,0-0.554,0.53-0.308,0.891
						C52.751,99.815,54.397,101.511,58.012,101.993z"/>
					<path style="fill:#4C4C49;" d="M69.627,93.513c0,0,0.117-0.864-0.751-0.947l-3.289-0.185c0,0-0.672-0.072-0.828,0.405
						c0,0-0.437,1.463-0.898,2.116c0,0-0.374,0.364,0.239,0.949l2.188,2.433c0,0,0.502,0.582,0.869,0.359
						C67.159,98.644,68.944,97.096,69.627,93.513z"/>
					<path style="fill:#4C4C49;" d="M49.141,93.513c0,0-0.115-0.864,0.752-0.947l3.287-0.185c0,0,0.674-0.072,0.833,0.405
						c0,0,0.433,1.463,0.893,2.116c0,0,0.374,0.364-0.239,0.949l-2.191,2.433c0,0-0.496,0.582-0.865,0.359
						C51.61,98.644,49.825,97.096,49.141,93.513z"/>
				</g>
			</g>
			<path style="fill:#A8A7A1;" d="M56.244,90.514c0,0.247-0.198,0.441-0.446,0.441c-0.239,0-0.439-0.194-0.439-0.441
				c0-0.242,0.2-0.438,0.439-0.438C56.045,90.075,56.244,90.271,56.244,90.514z"/>
			<path style="fill:#A8A7A1;" d="M58.104,88.386c0,0.243-0.197,0.442-0.44,0.442c-0.243,0-0.439-0.199-0.439-0.442
				c0-0.243,0.196-0.439,0.439-0.439C57.907,87.946,58.104,88.143,58.104,88.386z"/>
			<path style="fill:#A8A7A1;" d="M61.494,88.283c0,0.247-0.198,0.444-0.438,0.444c-0.248,0-0.445-0.197-0.445-0.444
				c0-0.242,0.197-0.441,0.445-0.441C61.295,87.842,61.494,88.041,61.494,88.283z"/>
			<path style="fill:#A8A7A1;" d="M63.404,90.514c0,0.247-0.196,0.441-0.446,0.441c-0.242,0-0.438-0.194-0.438-0.441
				c0-0.242,0.195-0.438,0.438-0.438C63.208,90.075,63.404,90.271,63.404,90.514z"/>
			<path style="fill:#A8A7A1;" d="M56.244,93.378c0-0.243-0.198-0.438-0.446-0.438c-0.239,0-0.439,0.194-0.439,0.438
				c0,0.246,0.2,0.441,0.439,0.441C56.045,93.819,56.244,93.624,56.244,93.378z"/>
			<path style="fill:#A8A7A1;" d="M58.104,95.511c0-0.244-0.197-0.441-0.44-0.441c-0.243,0-0.439,0.197-0.439,0.441
				c0,0.245,0.196,0.441,0.439,0.441C57.907,95.951,58.104,95.756,58.104,95.511z"/>
			<path style="fill:#A8A7A1;" d="M61.494,95.61c0-0.245-0.198-0.441-0.438-0.441c-0.248,0-0.445,0.196-0.445,0.441
				s0.197,0.441,0.445,0.441C61.295,96.052,61.494,95.855,61.494,95.61z"/>
			<path style="fill:#A8A7A1;" d="M63.404,93.378c0-0.243-0.196-0.438-0.446-0.438c-0.242,0-0.438,0.194-0.438,0.438
				c0,0.246,0.195,0.441,0.438,0.441C63.208,93.819,63.404,93.624,63.404,93.378z"/>
		</g>
		<g>
			<path style="fill:#363635;" d="M221.657,91.909c0,9.798-7.938,17.734-17.734,17.734c-9.795,0-17.734-7.937-17.734-17.734
				c0-9.793,7.939-17.73,17.734-17.73C213.72,74.179,221.657,82.116,221.657,91.909z"/>
			<path style="fill:#222222;" d="M221.657,91.909c0,9.798-7.938,17.734-17.734,17.734c-9.795,0-17.734-7.937-17.734-17.734
				c0-9.793,7.939-17.73,17.734-17.73C213.72,74.179,221.657,82.116,221.657,91.909z"/>
			<path d="M215.954,91.909c0,6.647-5.389,12.033-12.031,12.033c-6.646,0-12.031-5.386-12.031-12.033
				c0-6.646,5.385-12.031,12.031-12.031C210.565,79.878,215.954,85.264,215.954,91.909z"/>
			<path style="fill:#D5D3CB;" d="M214.909,91.909c0,6.068-4.922,10.987-10.986,10.987c-6.064,0-10.984-4.919-10.984-10.987
				c0-6.066,4.92-10.985,10.984-10.985C209.987,80.924,214.909,85.843,214.909,91.909z"/>
			<g>
				<g>
					<path style="fill:#4C4C49;" d="M205.29,81.831c0,0-0.871-0.063-0.902,0.805v3.292c0,0-0.033,0.676,0.451,0.806
						c0,0,1.486,0.357,2.162,0.774c0,0,0.389,0.358,0.936-0.29l2.307-2.323c0,0,0.549-0.534,0.307-0.885
						C210.55,84.01,208.907,82.314,205.29,81.831z"/>
					<path style="fill:#4C4C49;" d="M202.548,81.831c0,0,0.871-0.063,0.9,0.805v3.292c0,0,0.035,0.676-0.451,0.806
						c0,0-1.48,0.357-2.158,0.774c0,0-0.391,0.358-0.934-0.29l-2.311-2.323c0,0-0.549-0.534-0.305-0.885
						C197.29,84.01,198.935,82.314,202.548,81.831z"/>
					<path style="fill:#4C4C49;" d="M214.169,90.307c0,0,0.113,0.866-0.756,0.947l-3.287,0.188c0,0-0.676,0.067-0.83-0.409
						c0,0-0.438-1.466-0.893-2.114c0,0-0.375-0.367,0.236-0.95l2.186-2.435c0,0,0.506-0.576,0.871-0.354
						C211.696,85.179,213.481,86.726,214.169,90.307z"/>
					<path style="fill:#4C4C49;" d="M193.677,90.307c0,0-0.111,0.866,0.752,0.947l3.289,0.188c0,0,0.676,0.067,0.832-0.409
						c0,0,0.434-1.466,0.893-2.114c0,0,0.375-0.367-0.238-0.95l-2.189-2.435c0,0-0.5-0.576-0.867-0.354
						C196.147,85.179,194.362,86.726,193.677,90.307z"/>
				</g>
				<g>
					<path style="fill:#4C4C49;" d="M205.29,101.993c0,0-0.871,0.064-0.902-0.807v-3.294c0,0-0.033-0.676,0.451-0.805
						c0,0,1.486-0.357,2.162-0.775c0,0,0.389-0.355,0.936,0.293l2.307,2.319c0,0,0.549,0.53,0.307,0.891
						C210.55,99.815,208.907,101.511,205.29,101.993z"/>
					<path style="fill:#4C4C49;" d="M202.548,101.993c0,0,0.871,0.064,0.9-0.807v-3.294c0,0,0.035-0.676-0.451-0.805
						c0,0-1.48-0.357-2.158-0.775c0,0-0.391-0.355-0.934,0.293l-2.311,2.319c0,0-0.549,0.53-0.305,0.891
						C197.29,99.815,198.935,101.511,202.548,101.993z"/>
					<path style="fill:#4C4C49;" d="M214.169,93.513c0,0,0.113-0.864-0.756-0.947l-3.287-0.185c0,0-0.676-0.072-0.83,0.405
						c0,0-0.438,1.463-0.893,2.116c0,0-0.375,0.364,0.236,0.949l2.186,2.433c0,0,0.506,0.582,0.871,0.359
						C211.696,98.644,213.481,97.096,214.169,93.513z"/>
					<path style="fill:#4C4C49;" d="M193.677,93.513c0,0-0.111-0.864,0.752-0.947l3.289-0.185c0,0,0.676-0.072,0.832,0.405
						c0,0,0.434,1.463,0.893,2.116c0,0,0.375,0.364-0.238,0.949l-2.189,2.433c0,0-0.5,0.582-0.867,0.359
						C196.147,98.644,194.362,97.096,193.677,93.513z"/>
				</g>
			</g>
			<path style="fill:#A8A7A1;" d="M200.782,90.514c0,0.247-0.199,0.441-0.441,0.441c-0.246,0-0.443-0.194-0.443-0.441
				c0-0.242,0.197-0.438,0.443-0.438C200.583,90.075,200.782,90.271,200.782,90.514z"/>
			<path style="fill:#A8A7A1;" d="M202.644,88.386c0,0.243-0.197,0.442-0.441,0.442c-0.242,0-0.441-0.199-0.441-0.442
				c0-0.243,0.199-0.439,0.441-0.439C202.446,87.946,202.644,88.143,202.644,88.386z"/>
			<path style="fill:#A8A7A1;" d="M206.03,88.283c0,0.247-0.195,0.444-0.438,0.444c-0.248,0-0.443-0.197-0.443-0.444
				c0-0.242,0.195-0.441,0.443-0.441C205.835,87.842,206.03,88.041,206.03,88.283z"/>
			<path style="fill:#A8A7A1;" d="M207.94,90.514c0,0.247-0.195,0.441-0.443,0.441c-0.242,0-0.439-0.194-0.439-0.441
				c0-0.242,0.197-0.438,0.439-0.438C207.745,90.075,207.94,90.271,207.94,90.514z"/>
			<path style="fill:#A8A7A1;" d="M200.782,93.378c0-0.243-0.199-0.438-0.441-0.438c-0.246,0-0.443,0.194-0.443,0.438
				c0,0.246,0.197,0.441,0.443,0.441C200.583,93.819,200.782,93.624,200.782,93.378z"/>
			<path style="fill:#A8A7A1;" d="M202.644,95.511c0-0.244-0.197-0.441-0.441-0.441c-0.242,0-0.441,0.197-0.441,0.441
				c0,0.245,0.199,0.441,0.441,0.441C202.446,95.951,202.644,95.756,202.644,95.511z"/>
			<path style="fill:#A8A7A1;" d="M206.03,95.61c0-0.245-0.195-0.441-0.438-0.441c-0.248,0-0.443,0.196-0.443,0.441
				s0.195,0.441,0.443,0.441C205.835,96.052,206.03,95.855,206.03,95.61z"/>
			<path style="fill:#A8A7A1;" d="M207.94,93.378c0-0.243-0.195-0.438-0.443-0.438c-0.242,0-0.439,0.194-0.439,0.438
				c0,0.246,0.197,0.441,0.439,0.441C207.745,93.819,207.94,93.624,207.94,93.378z"/>
		</g>
		<g>
			<path style="fill:#173F78;" d="M269.993,60.216l-1.389-0.765c0,0-0.131-0.101-0.301,0.228l-4.467,11.874c0,0-0.035,0.165,0.352,0
				c0,0,1.707-0.685,2.23-1.069c0.293-0.218,0.66-0.744,0.66-0.744s3.064-8.307,3.209-8.712
				C270.439,60.622,269.993,60.216,269.993,60.216z"/>
			<g>
				<path style="fill:#D5D3CB;" d="M270.292,60.377l-1.353-0.728c0,0-0.129-0.099-0.287,0.219l-4.359,11.299c0,0-0.039,0.163,0.34,0
					c0,0,1.666-0.649,2.174-1.014c0.289-0.209,0.646-0.711,0.646-0.711s2.986-7.905,3.131-8.293
					C270.728,60.762,270.292,60.377,270.292,60.377z"/>
				<path style="fill:#E86408;" d="M268.597,66.401c0.861-2.271,1.902-5.028,1.986-5.252c0.145-0.388-0.291-0.772-0.291-0.772
					l-1.353-0.728c0,0-0.129-0.099-0.287,0.219l-2.522,6.533H268.597z"/>
				<path style="opacity:0.4;fill:#FFFFFF;" d="M269.554,59.979l-0.615-0.33c0,0-0.129-0.099-0.287,0.219l-4.359,11.299
					c0,0-0.039,0.163,0.34,0c0,0,0.301-0.119,0.693-0.284C266.624,67.208,268.2,63.635,269.554,59.979z"/>
			</g>
		</g>
		<g>
			<path style="fill:#747F7A;" d="M264.351,79.243h-28.201c0,0-1.471-0.064-1.471,2.1l2.711,5.364c0,0,0.777,1.421,2.711,1.146
				l22.393-2.395c0,0,0.645,0.1,1.035-0.441c0.389-0.543,1.535-4.655,1.535-4.655S265.366,79.243,264.351,79.243z"/>
			<g>
				<path style="fill:#66706B;" d="M265.064,80.361c0,0,0.303-1.118-0.713-1.118h-28.201c0,0-1.471-0.064-1.471,2.1l1.361,2.689
					l28.441-1.672C264.798,81.312,265.064,80.361,265.064,80.361z"/>
			</g>
		</g>
		<g>
			<path style="fill:none;" d="M75.624,55.015c0.099,0.011,0.195,0.024,0.295,0.034c0,0,0.342,0.063,0.864-0.043L75.624,55.015z"/>
			<path style="fill:#00384B;" d="M79.502,53.14c1.745-2.263,23.65-39.603,23.65-39.603s2.064-2.725,0-3.405
				c0,0-3.809-0.143-7.808-1.539c-1.134,1.117-1.908,2.078-1.908,2.078L68.059,51.247c0,0,3.345,3.213,7.564,3.768l1.159-0.009
				C77.484,54.87,78.506,54.43,79.502,53.14z"/>
		</g>
		<path style="fill:#00384B;" d="M116.578,12.177c0,0-4.746-0.895-6.97,1.66L87.726,51.269c0,0-1.157,1.656,0,1.916h54.595
			l0.629-41.154L116.578,12.177z"/>
		<path style="fill:#00384B;" d="M173.282,12.177c0,0,4.746-0.895,6.969,1.66l21.877,37.432c0,0,1.162,1.656,0,1.916h-54.961
			l-1.471-41.16L173.282,12.177z"/>
		<path style="opacity:0.5;fill:#00384B;" d="M86.417,41.853c7.009-11.738,16.736-28.315,16.736-28.315s2.064-2.725,0-3.405
			c0,0-3.809-0.143-7.808-1.539c-1.134,1.117-1.908,2.078-1.908,2.078L69.726,48.575C75.229,46.081,80.798,43.842,86.417,41.853z"/>
		<path style="opacity:0.5;fill:#00384B;" d="M109.376,35.044c11.021-2.657,22.145-4.549,33.313-5.761l0.262-17.253l-26.373,0.146
			c0,0-4.746-0.895-6.97,1.66L94.877,39.036C99.683,37.539,104.521,36.208,109.376,35.044z"/>
		<path style="opacity:0.5;fill:#00384B;" d="M176.36,27.595c4.031,0.02,8.066,0.116,12.098,0.281l-8.207-14.039
			c-2.223-2.556-6.969-1.66-6.969-1.66l-27.586-0.152l0.602,16.898C156.3,27.967,166.333,27.548,176.36,27.595z"/>
		<g>
			<path style="fill:#FE231B;" d="M259.729,58.557H76.783l-52.7,6.599h234.147c0,0,3.186,0.25,3.752-1.295
				c0.568-1.55,1.34-3.949,1.34-3.949S263.749,58.557,259.729,58.557z"/>
		</g>
		<g>
			<path style="fill:#720000;" d="M127.801,58.437h15.012c0,0,0.795-0.107,0.863,0.337c0.061,0.442-1.146,1.998-1.146,1.998
				s-0.26,0.517-1.34,0.667h-11.922c0,0-0.639,0.22-1.467-0.744C126.975,59.733,125.956,58.437,127.801,58.437z"/>
			<path style="fill:#B6B6B6;" d="M128.214,58.563h13.417c0,0,0.709-0.076,0.771,0.245c0.055,0.317-1.031,1.444-1.031,1.444
				s-0.227,0.371-1.195,0.482h-10.652c0,0-0.568,0.159-1.311-0.537C127.474,59.503,126.567,58.563,128.214,58.563z"/>
		</g>
		<g>
			<path style="fill:#720000;" d="M189.808,58.437h15.014c0,0,0.795-0.107,0.859,0.337c0.064,0.442-1.15,1.998-1.15,1.998
				s-0.252,0.517-1.338,0.667h-11.92c0,0-0.633,0.22-1.465-0.744C188.979,59.733,187.962,58.437,189.808,58.437z"/>
			<path style="fill:#B6B6B6;" d="M190.222,58.563h13.418c0,0,0.713-0.076,0.768,0.245c0.057,0.317-1.025,1.444-1.025,1.444
				s-0.229,0.371-1.195,0.482h-10.652c0,0-0.57,0.159-1.313-0.537C189.481,59.503,188.571,58.563,190.222,58.563z"/>
		</g>
		<path style="fill:#85867D;" d="M146.528,57.003v25.889c0,0-0.414,9.36-1.928,11.013c0,0,0.551-8.122,0.412-14.323
			c-0.139-6.193,0-22.578,0-22.578H146.528z"/>
		<g>
			<path style="fill:#747F7A;" d="M15.635,87.605h16.287c0,0,2.304,0,2.075,1.122l-1.948,7.324c0,0-0.33,1.4-2.318,1.332
				c0,0-8.334,0.549-9.795-0.611c-1.461-1.164-5.263-6.697-5.263-6.697S13.003,87.605,15.635,87.605z"/>
			<path style="fill:#66706B;" d="M15.403,91.118H33.36l0.638-2.391c0.229-1.122-2.075-1.122-2.075-1.122H15.635
				c-2.632,0-0.962,2.47-0.962,2.47S14.961,90.492,15.403,91.118z"/>
		</g>
	</g>
	<g>
		<path d="M81.623,50.606l-5.915,3.935c0,0-2.688,1.896-0.73,3.939c0,0,0.92,1.073,3.402,1.127c2.489,0.053,7.635-1.127,7.635-1.127
			L81.623,50.606z"/>
		<g>
			<path style="fill:#222222;" d="M91.977,49.042c-1.203-3.347-7.305-2.878-7.315-2.878c-2.618,0.194-4.59,2.838-6.077,5.647
				c-1.709,3.238-0.436,9.863,2.78,9.245c3.682-0.71,2.272-0.18,8.237-1.929C91.157,58.671,93.436,53.112,91.977,49.042z"/>
		</g>
		<g>
			<path style="fill:#141412;" d="M91.977,49.042c-0.109-0.312-0.264-0.586-0.445-0.827c0.061,1.565-0.286,3.132-1.371,4.346
				c-1.358,1.517-3.327,2.31-5.252,2.845c-1.16,0.324-2.292,0.729-3.472,0.964c-0.939,0.188-2.217,0.438-3.094-0.1
				c-0.194-0.129-0.366-0.266-0.505-0.416c0.126,2.849,1.396,5.611,3.526,5.203c3.682-0.71,2.272-0.18,8.237-1.929
				C91.157,58.671,93.436,53.112,91.977,49.042z"/>
		</g>
	</g>
</g>
</svg>
